<?xml version="1.0" encoding="UTF-8" standalone="no"?>
<!DOCTYPE svg PUBLIC "-//W3C//DTD SVG 1.1//EN"
 "http://www.w3.org/Graphics/SVG/1.1/DTD/svg11.dtd">
<!-- Generated by graphviz version 2.29.20110729.0445 (20110729.0445)
 -->
<!-- Title: controllers_diagram Pages: 1 -->
<svg width="468pt" height="410pt"
 viewBox="0.00 0.00 467.63 410.20" xmlns="http://www.w3.org/2000/svg" xmlns:xlink="http://www.w3.org/1999/xlink">
<g id="graph1" class="graph" transform="scale(1 1) rotate(0) translate(4 406.2)">
<title>controllers_diagram</title>
<polygon fill="white" stroke="white" points="-4,5 -4,-406.2 464.635,-406.2 464.635,5 -4,5"/>
<!-- _diagram_info -->
<g id="node1" class="node"><title>_diagram_info</title>
<text text-anchor="start" x="30" y="-355" font-family="Times,serif" font-size="13.00">Controllers diagram</text>
<text text-anchor="start" x="30" y="-339.4" font-family="Times,serif" font-size="13.00">Date: Jun 03 2012 &#45; 15:18</text>
<text text-anchor="start" x="30" y="-323.8" font-family="Times,serif" font-size="13.00">Migration version: 20120602172413</text>
<text text-anchor="start" x="30" y="-308.2" font-family="Times,serif" font-size="13.00">Generated by RailRoady 1.0.2</text>
<text text-anchor="start" x="30" y="-292.6" font-family="Times,serif" font-size="13.00">http://railroady.prestonlee.com</text>
</g>
<!-- ApplicationController -->
<g id="node2" class="node"><title>ApplicationController</title>
<polyline fill="none" stroke="black" points="276,-286.5 447.635,-286.5 "/>
<path fill="none" stroke="black" d="M447.635,-286.5C453.635,-286.5 459.635,-292.5 459.635,-298.5"/>
<polyline fill="none" stroke="black" points="459.635,-298.5 459.635,-389.7 "/>
<path fill="none" stroke="black" d="M459.635,-389.7C459.635,-395.7 453.635,-401.7 447.635,-401.7"/>
<polyline fill="none" stroke="black" points="447.635,-401.7 276,-401.7 "/>
<path fill="none" stroke="black" d="M276,-401.7C270,-401.7 264,-395.7 264,-389.7"/>
<polyline fill="none" stroke="black" points="264,-389.7 264,-298.5 "/>
<path fill="none" stroke="black" d="M264,-298.5C264,-292.5 270,-286.5 276,-286.5"/>
<text text-anchor="middle" x="361.817" y="-383.7" font-family="Times,serif" font-size="14.00">ApplicationController</text>
<polyline fill="none" stroke="black" points="264,-376.9 459.635,-376.9 "/>
<text text-anchor="start" x="272" y="-358.9" font-family="Times,serif" font-size="14.00">_one_time_conditions_valid_8?</text>
<polyline fill="none" stroke="black" points="264,-352.1 459.635,-352.1 "/>
<polyline fill="none" stroke="black" points="264,-328.1 459.635,-328.1 "/>
<text text-anchor="start" x="272" y="-310.1" font-family="Times,serif" font-size="14.00">_layout</text>
<text text-anchor="start" x="272" y="-293.3" font-family="Times,serif" font-size="14.00">_run_process_action_callbacks</text>
</g>
<!-- EnqueteursController -->
<g id="node3" class="node"><title>EnqueteursController</title>
<polyline fill="none" stroke="black" points="12,-0.5 190.635,-0.5 "/>
<path fill="none" stroke="black" d="M190.635,-0.5C196.635,-0.5 202.635,-6.5 202.635,-12.5"/>
<polyline fill="none" stroke="black" points="202.635,-12.5 202.635,-238.1 "/>
<path fill="none" stroke="black" d="M202.635,-238.1C202.635,-244.1 196.635,-250.1 190.635,-250.1"/>
<polyline fill="none" stroke="black" points="190.635,-250.1 12,-250.1 "/>
<path fill="none" stroke="black" d="M12,-250.1C6,-250.1 0,-244.1 0,-238.1"/>
<polyline fill="none" stroke="black" points="0,-238.1 0,-12.5 "/>
<path fill="none" stroke="black" d="M0,-12.5C0,-6.5 6,-0.5 12,-0.5"/>
<text text-anchor="middle" x="101.317" y="-232.1" font-family="Times,serif" font-size="14.00">EnqueteursController</text>
<polyline fill="none" stroke="black" points="0,-225.3 202.635,-225.3 "/>
<text text-anchor="start" x="8" y="-207.3" font-family="Times,serif" font-size="14.00">_one_time_conditions_valid_30?</text>
<text text-anchor="start" x="8" y="-190.5" font-family="Times,serif" font-size="14.00">create</text>
<text text-anchor="start" x="8" y="-173.7" font-family="Times,serif" font-size="14.00">destroy</text>
<text text-anchor="start" x="8" y="-156.9" font-family="Times,serif" font-size="14.00">edit</text>
<text text-anchor="start" x="8" y="-140.1" font-family="Times,serif" font-size="14.00">index</text>
<text text-anchor="start" x="8" y="-123.3" font-family="Times,serif" font-size="14.00">new</text>
<text text-anchor="start" x="8" y="-106.5" font-family="Times,serif" font-size="14.00">show</text>
<text text-anchor="start" x="8" y="-89.7" font-family="Times,serif" font-size="14.00">update</text>
<polyline fill="none" stroke="black" points="0,-82.9 202.635,-82.9 "/>
<polyline fill="none" stroke="black" points="0,-58.9 202.635,-58.9 "/>
<text text-anchor="start" x="8" y="-40.9" font-family="Times,serif" font-size="14.00">_layout</text>
<text text-anchor="start" x="8" y="-24.1" font-family="Times,serif" font-size="14.00">_run_process_action_callbacks</text>
<text text-anchor="start" x="8" y="-7.3" font-family="Times,serif" font-size="14.00">find_enqueteur</text>
</g>
<!-- ToponymesController -->
<g id="node4" class="node"><title>ToponymesController</title>
<polyline fill="none" stroke="black" points="254,-0.5 432.635,-0.5 "/>
<path fill="none" stroke="black" d="M432.635,-0.5C438.635,-0.5 444.635,-6.5 444.635,-12.5"/>
<polyline fill="none" stroke="black" points="444.635,-12.5 444.635,-238.1 "/>
<path fill="none" stroke="black" d="M444.635,-238.1C444.635,-244.1 438.635,-250.1 432.635,-250.1"/>
<polyline fill="none" stroke="black" points="432.635,-250.1 254,-250.1 "/>
<path fill="none" stroke="black" d="M254,-250.1C248,-250.1 242,-244.1 242,-238.1"/>
<polyline fill="none" stroke="black" points="242,-238.1 242,-12.5 "/>
<path fill="none" stroke="black" d="M242,-12.5C242,-6.5 248,-0.5 254,-0.5"/>
<text text-anchor="middle" x="343.317" y="-232.1" font-family="Times,serif" font-size="14.00">ToponymesController</text>
<polyline fill="none" stroke="black" points="242,-225.3 444.635,-225.3 "/>
<text text-anchor="start" x="250" y="-207.3" font-family="Times,serif" font-size="14.00">_one_time_conditions_valid_40?</text>
<text text-anchor="start" x="250" y="-190.5" font-family="Times,serif" font-size="14.00">_one_time_conditions_valid_42?</text>
<text text-anchor="start" x="250" y="-173.7" font-family="Times,serif" font-size="14.00">create</text>
<text text-anchor="start" x="250" y="-156.9" font-family="Times,serif" font-size="14.00">edit</text>
<text text-anchor="start" x="250" y="-140.1" font-family="Times,serif" font-size="14.00">new</text>
<text text-anchor="start" x="250" y="-123.3" font-family="Times,serif" font-size="14.00">show</text>
<text text-anchor="start" x="250" y="-106.5" font-family="Times,serif" font-size="14.00">update</text>
<polyline fill="none" stroke="black" points="242,-99.7 444.635,-99.7 "/>
<polyline fill="none" stroke="black" points="242,-75.7 444.635,-75.7 "/>
<text text-anchor="start" x="250" y="-57.7" font-family="Times,serif" font-size="14.00">_layout</text>
<text text-anchor="start" x="250" y="-40.9" font-family="Times,serif" font-size="14.00">_run_process_action_callbacks</text>
<text text-anchor="start" x="250" y="-24.1" font-family="Times,serif" font-size="14.00">find_enqueteur</text>
<text text-anchor="start" x="250" y="-7.3" font-family="Times,serif" font-size="14.00">find_toponyme</text>
</g>
</g>
</svg>
