<?xml version="1.0" encoding="UTF-8" standalone="no"?>
<!DOCTYPE svg PUBLIC "-//W3C//DTD SVG 1.1//EN"
 "http://www.w3.org/Graphics/SVG/1.1/DTD/svg11.dtd">
<!-- Generated by graphviz version 2.29.20110729.0445 (20110729.0445)
 -->
<!-- Title: models_diagram Pages: 1 -->
<svg width="335pt" height="166pt"
 viewBox="0.00 0.00 335.00 166.00" xmlns="http://www.w3.org/2000/svg" xmlns:xlink="http://www.w3.org/1999/xlink">
<g id="graph1" class="graph" transform="scale(1 1) rotate(0) translate(4 162)">
<title>models_diagram</title>
<polygon fill="white" stroke="white" points="-4,5 -4,-162 332,-162 332,5 -4,5"/>
<!-- _diagram_info -->
<g id="node1" class="node"><title>_diagram_info</title>
<text text-anchor="start" x="7.31226" y="-141" font-family="Times,serif" font-size="13.00">Models diagram</text>
<text text-anchor="start" x="7.31226" y="-125.4" font-family="Times,serif" font-size="13.00">Date: Jun 03 2012 &#45; 15:17</text>
<text text-anchor="start" x="7.31226" y="-109.8" font-family="Times,serif" font-size="13.00">Migration version: 20120602172413</text>
<text text-anchor="start" x="7.31226" y="-94.2" font-family="Times,serif" font-size="13.00">Generated by RailRoady 1.0.2</text>
<text text-anchor="start" x="7.31226" y="-78.6" font-family="Times,serif" font-size="13.00">http://railroady.prestonlee.com</text>
</g>
<!-- Enqueteur -->
<g id="node2" class="node"><title>Enqueteur</title>
<ellipse fill="none" stroke="black" cx="275" cy="-115" rx="50.5802" ry="18"/>
<text text-anchor="middle" x="275" y="-109.4" font-family="Times,serif" font-size="14.00">Enqueteur</text>
</g>
<!-- Toponyme -->
<g id="node3" class="node"><title>Toponyme</title>
<ellipse fill="none" stroke="black" cx="275" cy="-18" rx="52.3021" ry="18"/>
<text text-anchor="middle" x="275" y="-12.4" font-family="Times,serif" font-size="14.00">Toponyme</text>
</g>
<!-- Enqueteur&#45;&gt;Toponyme -->
<g id="edge2" class="edge"><title>Enqueteur&#45;&gt;Toponyme</title>
<path fill="none" stroke="black" d="M275,-88.4138C275,-75.5178 275,-59.8618 275,-46.6847"/>
<ellipse fill="none" stroke="black" cx="275" cy="-92.5755" rx="4" ry="4"/>
<polygon fill="black" stroke="black" points="275,-46.314 279.5,-36.314 275,-41.314 275,-36.314 275,-36.314 275,-36.314 275,-41.314 270.5,-36.314 275,-46.314 275,-46.314"/>
</g>
</g>
</svg>
