<?xml version="1.0" encoding="UTF-8" standalone="no"?>
<!DOCTYPE svg PUBLIC "-//W3C//DTD SVG 1.1//EN"
 "http://www.w3.org/Graphics/SVG/1.1/DTD/svg11.dtd">
<!-- Generated by graphviz version 2.29.20110729.0445 (20110729.0445)
 -->
<!-- Title: models_diagram Pages: 1 -->
<svg width="385pt" height="314pt"
 viewBox="0.00 0.00 385.00 314.00" xmlns="http://www.w3.org/2000/svg" xmlns:xlink="http://www.w3.org/1999/xlink">
<g id="graph1" class="graph" transform="scale(1 1) rotate(0) translate(4 310)">
<title>models_diagram</title>
<polygon fill="white" stroke="white" points="-4,5 -4,-310 382,-310 382,5 -4,5"/>
<!-- _diagram_info -->
<g id="node1" class="node"><title>_diagram_info</title>
<text text-anchor="start" x="7.31226" y="-273" font-family="Times,serif" font-size="13.00">Models diagram</text>
<text text-anchor="start" x="7.31226" y="-257.4" font-family="Times,serif" font-size="13.00">Date: Jun 03 2012 &#45; 15:17</text>
<text text-anchor="start" x="7.31226" y="-241.8" font-family="Times,serif" font-size="13.00">Migration version: 20120602172413</text>
<text text-anchor="start" x="7.31226" y="-226.2" font-family="Times,serif" font-size="13.00">Generated by RailRoady 1.0.2</text>
<text text-anchor="start" x="7.31226" y="-210.6" font-family="Times,serif" font-size="13.00">http://railroady.prestonlee.com</text>
</g>
<!-- Enqueteur -->
<g id="node2" class="node"><title>Enqueteur</title>
<polyline fill="none" stroke="black" points="236.495,-188.6 345.505,-188.6 "/>
<path fill="none" stroke="black" d="M345.505,-188.6C351.505,-188.6 357.505,-194.6 357.505,-200.6"/>
<polyline fill="none" stroke="black" points="357.505,-200.6 357.505,-293.4 "/>
<path fill="none" stroke="black" d="M357.505,-293.4C357.505,-299.4 351.505,-305.4 345.505,-305.4"/>
<polyline fill="none" stroke="black" points="345.505,-305.4 236.495,-305.4 "/>
<path fill="none" stroke="black" d="M236.495,-305.4C230.495,-305.4 224.495,-299.4 224.495,-293.4"/>
<polyline fill="none" stroke="black" points="224.495,-293.4 224.495,-200.6 "/>
<path fill="none" stroke="black" d="M224.495,-200.6C224.495,-194.6 230.495,-188.6 236.495,-188.6"/>
<text text-anchor="middle" x="291" y="-287.4" font-family="Times,serif" font-size="14.00">Enqueteur</text>
<polyline fill="none" stroke="black" points="224.495,-280.6 357.505,-280.6 "/>
<text text-anchor="start" x="232.495" y="-262.6" font-family="Times,serif" font-size="14.00">nom :string</text>
<text text-anchor="start" x="232.495" y="-245.8" font-family="Times,serif" font-size="14.00">date_enquete :date</text>
<text text-anchor="start" x="232.495" y="-229" font-family="Times,serif" font-size="14.00">informateur :string</text>
<text text-anchor="start" x="232.495" y="-212.2" font-family="Times,serif" font-size="14.00">created_at :datetime</text>
<text text-anchor="start" x="232.495" y="-195.4" font-family="Times,serif" font-size="14.00">updated_at :datetime</text>
</g>
<!-- Toponyme -->
<g id="node3" class="node"><title>Toponyme</title>
<polyline fill="none" stroke="black" points="216.271,-0.8 365.729,-0.8 "/>
<path fill="none" stroke="black" d="M365.729,-0.8C371.729,-0.8 377.729,-6.8 377.729,-12.8"/>
<polyline fill="none" stroke="black" points="377.729,-12.8 377.729,-139.2 "/>
<path fill="none" stroke="black" d="M377.729,-139.2C377.729,-145.2 371.729,-151.2 365.729,-151.2"/>
<polyline fill="none" stroke="black" points="365.729,-151.2 216.271,-151.2 "/>
<path fill="none" stroke="black" d="M216.271,-151.2C210.271,-151.2 204.271,-145.2 204.271,-139.2"/>
<polyline fill="none" stroke="black" points="204.271,-139.2 204.271,-12.8 "/>
<path fill="none" stroke="black" d="M204.271,-12.8C204.271,-6.8 210.271,-0.8 216.271,-0.8"/>
<text text-anchor="middle" x="291" y="-133.2" font-family="Times,serif" font-size="14.00">Toponyme</text>
<polyline fill="none" stroke="black" points="204.271,-126.4 377.729,-126.4 "/>
<text text-anchor="start" x="212.271" y="-108.4" font-family="Times,serif" font-size="14.00">toponyme_actuel :string</text>
<text text-anchor="start" x="212.271" y="-91.6" font-family="Times,serif" font-size="14.00">variante_graphique :string</text>
<text text-anchor="start" x="212.271" y="-74.8" font-family="Times,serif" font-size="14.00">prononciation_locale :string</text>
<text text-anchor="start" x="212.271" y="-58" font-family="Times,serif" font-size="14.00">emploi_contexte :string</text>
<text text-anchor="start" x="212.271" y="-41.2" font-family="Times,serif" font-size="14.00">ethymologie_proposee :text</text>
<text text-anchor="start" x="212.271" y="-24.4" font-family="Times,serif" font-size="14.00">created_at :datetime</text>
<text text-anchor="start" x="212.271" y="-7.6" font-family="Times,serif" font-size="14.00">updated_at :datetime</text>
</g>
<!-- Enqueteur&#45;&gt;Toponyme -->
<g id="edge2" class="edge"><title>Enqueteur&#45;&gt;Toponyme</title>
<path fill="none" stroke="black" d="M291,-180.145C291,-174.121 291,-167.964 291,-161.805"/>
<ellipse fill="none" stroke="black" cx="291" cy="-184.312" rx="4" ry="4"/>
<polygon fill="black" stroke="black" points="291,-161.46 295.5,-151.46 291,-156.46 291,-151.46 291,-151.46 291,-151.46 291,-156.46 286.5,-151.46 291,-161.46 291,-161.46"/>
</g>
</g>
</svg>
